<svg width="25" height="16" viewBox="0 0 25 16" fill="none" xmlns="http://www.w3.org/2000/svg">
<path d="M7.25066 0C7.9866 0 8.64881 0.0650876 9.25606 0.197815C9.85955 0.329266 10.3743 0.546223 10.8091 0.846136C11.2377 1.14605 11.5726 1.54423 11.8137 2.04451C12.0474 2.53841 12.1636 3.1561 12.1636 3.8861C12.1636 4.67736 11.9886 5.33844 11.6375 5.86552C11.2839 6.39387 10.7629 6.82651 10.0682 7.16088C11.0141 7.44038 11.715 7.92917 12.1798 8.62344C12.6471 9.32408 12.8758 10.1626 12.8758 11.1453C12.8758 11.9429 12.7271 12.6282 12.4285 13.2038C12.1407 13.7708 11.7232 14.2585 11.2115 14.6255C10.6814 15.0025 10.0893 15.2792 9.46347 15.4423C8.80726 15.6182 8.13151 15.7066 7.45307 15.7052H0V0H7.25066ZM6.8121 6.34538C7.41184 6.34538 7.90913 6.19989 8.30146 5.90508C8.6913 5.6141 8.87997 5.13424 8.87997 4.47699C8.87997 4.11199 8.81624 3.8108 8.6913 3.5747C8.56956 3.34756 8.3894 3.15869 8.17027 3.02848C7.94091 2.88953 7.68776 2.79641 7.42434 2.75409C7.1372 2.69939 6.84553 2.67332 6.55346 2.67624H3.38606V6.34538H6.8121V6.34538ZM7.00077 13.0315C7.33437 13.0315 7.65174 13.0022 7.95036 12.9332C8.25148 12.8669 8.51887 12.7597 8.74627 12.6001C8.97368 12.447 9.1611 12.239 9.29604 11.9735C9.43223 11.7106 9.49845 11.3673 9.49845 10.9551C9.49845 10.146 9.2748 9.57039 8.83249 9.22198C8.38893 8.8774 7.79418 8.70639 7.06574 8.70639H3.38606V13.0328H7.00077V13.0315ZM17.7025 12.9792C18.161 13.4361 18.822 13.6658 19.6816 13.6658C20.2976 13.6658 20.8299 13.5063 21.2784 13.1898C21.7207 12.872 21.9906 12.5325 22.0943 12.1815H24.7869C24.3546 13.5497 23.6987 14.5272 22.8015 15.1156C21.9157 15.7065 20.8374 16 19.5779 16C18.7008 16 17.9111 15.8558 17.2039 15.5699C16.5251 15.2999 15.9117 14.8828 15.4059 14.3473C14.9085 13.7993 14.524 13.1548 14.2752 12.4521C14.0017 11.675 13.8663 10.8543 13.8753 10.0286C13.8753 9.17859 14.014 8.38351 14.2864 7.64968C14.545 6.94033 14.942 6.29207 15.4534 5.74428C15.9594 5.20826 16.5592 4.78583 17.2576 4.47571C17.9921 4.1602 18.7824 4.00292 19.5792 4.01372C20.5213 4.01372 21.3447 4.20005 22.0519 4.57526C22.7377 4.93342 23.3323 5.44992 23.7886 6.08375C24.2422 6.71293 24.5658 7.434 24.7669 8.24184C24.9681 9.04842 25.0381 9.89072 24.9806 10.7726H16.9453C16.9465 11.6711 17.2427 12.5223 17.7025 12.9792V12.9792ZM21.216 7.00519C20.8524 6.59424 20.2376 6.37218 19.4854 6.37218C18.9969 6.37218 18.5933 6.45513 18.2685 6.62615C17.9714 6.77939 17.7079 6.99256 17.4938 7.25277C17.3058 7.48902 17.1664 7.76163 17.084 8.05424C17.0119 8.29823 16.9654 8.54936 16.9453 8.80338H21.9207C21.8482 8.00702 21.5808 7.41868 21.216 7.00519V7.00519ZM16.3205 1.05416H22.5541V2.60477H16.3205V1.05416Z" fill="#E0E2D6"/>
</svg>
