<svg width="126" height="52" viewBox="0 0 126 52" fill="none" xmlns="http://www.w3.org/2000/svg">
<path d="M28.7257 14.5281V37.7542C28.7257 39.1458 28.6415 40.3965 28.4824 41.4966C28.3233 42.5968 28.0988 43.5654 27.8087 44.4117C27.4251 45.4836 26.8169 46.4804 25.9935 47.4019C25.1701 48.3234 24.1782 49.1227 23.018 49.8091C21.8577 50.4862 20.5478 51.0221 19.0787 51.4171C17.6097 51.8026 16.0284 52.0001 14.3161 52.0001C12.3792 52.0001 10.6107 51.7556 9.00134 51.2666C7.38259 50.7777 5.9697 50.11 4.76266 49.2543C3.55562 48.3986 2.56379 47.3925 1.78717 46.2453C1.01055 45.0981 0.495916 43.8381 0.243279 42.484H10.1055C10.7136 44.139 12.1078 44.9664 14.2599 44.9664C16.0939 44.9664 17.5068 44.4493 18.4892 43.4149C19.4717 42.3805 19.9676 40.9324 19.9676 39.0894V36.7104C19.322 37.3216 18.7044 37.8388 18.1056 38.2431C17.5068 38.6475 16.9079 38.9766 16.2904 39.2399C15.6822 39.5032 15.0365 39.6818 14.3535 39.7947C13.6798 39.9075 12.9312 39.9639 12.1265 39.9639C10.3487 39.9639 8.72063 39.6536 7.24224 39.0424C5.75449 38.4312 4.48196 37.5661 3.39655 36.4659C2.32051 35.3657 1.47839 34.0399 0.879549 32.5071C0.299421 30.9462 0 29.2348 0 27.3636C0 25.4547 0.318135 23.6775 0.963761 22.0413C1.60939 20.4051 2.48893 18.9758 3.60241 17.7628C4.71588 16.5498 6.0352 15.5907 7.56973 14.8948C9.10426 14.199 10.7698 13.8511 12.5757 13.8511C15.5044 13.8511 17.9746 14.9513 19.977 17.1516V14.5281H28.7257ZM9.09491 26.8746C9.09491 27.6833 9.23526 28.4355 9.52532 29.1314C9.81539 29.8272 10.2084 30.4384 10.7136 30.9556C11.2096 31.4728 11.8084 31.8771 12.5008 32.1686C13.1932 32.4601 13.9418 32.6106 14.7465 32.6106C15.5231 32.6106 16.2529 32.4601 16.9453 32.1686C17.6378 31.8771 18.2366 31.4728 18.7325 30.9556C19.2284 30.4384 19.6308 29.8272 19.9396 29.1314C20.2483 28.4355 20.398 27.7021 20.398 26.9216C20.398 26.1129 20.2483 25.3701 19.9396 24.6836C19.6308 24.0066 19.2191 23.4048 18.7044 22.8876C18.1898 22.3704 17.5816 21.9661 16.8892 21.6746C16.1968 21.3831 15.4763 21.2326 14.7371 21.2326C13.9605 21.2326 13.24 21.3831 12.557 21.6934C11.8833 22.0037 11.2844 22.408 10.7698 22.9064C10.2552 23.4048 9.84346 23.9972 9.53468 24.6836C9.24462 25.3701 9.09491 26.0941 9.09491 26.8746Z" fill="white"/>
<path d="M31.6733 14.5282H40.422V18.6092C41.3577 17.1235 42.4993 15.9763 43.856 15.1864C45.2128 14.3965 46.7847 13.9922 48.5906 13.9922C48.8152 13.9922 49.0678 13.9922 49.3392 13.9922C49.6105 13.9922 49.9287 14.0298 50.2842 14.0862V22.4927C49.124 21.9191 47.8701 21.6276 46.5134 21.6276C44.4829 21.6276 42.9578 22.2388 41.9472 23.4519C40.9367 24.6649 40.422 26.4421 40.422 28.7741V39.4656H31.6733V14.5282Z" fill="white"/>
<path d="M51.6875 4.95552C51.6875 4.27848 51.8185 3.63906 52.0711 3.03725C52.3238 2.43544 52.6793 1.90886 53.1378 1.4575C53.5869 1.00615 54.1109 0.648825 54.7098 0.385533C55.3086 0.131646 55.9449 0 56.6186 0C57.2923 0 57.9285 0.131646 58.5274 0.385533C59.1262 0.648825 59.6502 0.996745 60.0994 1.4575C60.5485 1.90886 60.904 2.43544 61.166 3.03725C61.428 3.63906 61.5497 4.27848 61.5497 4.95552C61.5497 5.63255 61.4187 6.27197 61.166 6.87378C60.904 7.47559 60.5578 8.00217 60.0994 8.45353C59.6502 8.90488 59.1262 9.26221 58.5274 9.5255C57.9285 9.78879 57.2923 9.91103 56.6186 9.91103C55.9449 9.91103 55.3086 9.77939 54.7098 9.5255C54.1109 9.26221 53.5869 8.91429 53.1378 8.45353C52.6887 8.00217 52.3331 7.47559 52.0711 6.87378C51.8185 6.28137 51.6875 5.63255 51.6875 4.95552ZM61.0257 14.528V39.4561H52.277V14.528H61.0257Z" fill="white"/>
<path d="M63.1499 26.7806C63.1499 24.9376 63.5242 23.2074 64.2634 21.6089C65.0026 20.0009 66.0318 18.6092 67.3605 17.4338C68.6798 16.249 70.2518 15.3181 72.0764 14.641C73.901 13.964 75.8846 13.6255 78.0461 13.6255C80.1701 13.6255 82.1444 13.9546 83.969 14.6222C85.7936 15.2899 87.3656 16.2114 88.7036 17.3962C90.0416 18.581 91.0802 19.9915 91.8194 21.6277C92.5586 23.2638 92.9329 25.0693 92.9329 27.0439C92.9329 29.0186 92.5493 30.824 91.8007 32.4602C91.0428 34.0964 90.0042 35.5069 88.6849 36.6917C87.3656 37.8765 85.7749 38.7886 83.9222 39.4374C82.0696 40.0862 80.0578 40.406 77.9057 40.406C75.7817 40.406 73.8074 40.0862 72.0109 39.4374C70.205 38.7886 68.6518 37.8671 67.3418 36.6635C66.0318 35.4693 65.0119 34.0306 64.2727 32.3662C63.5242 30.6736 63.1499 28.8211 63.1499 26.7806ZM72.3852 26.8747C72.3852 27.721 72.5349 28.4826 72.8436 29.1785C73.1524 29.8743 73.5548 30.4855 74.0507 31.0027C74.5466 31.5199 75.1455 31.9242 75.8379 32.2157C76.5303 32.5072 77.2601 32.6577 78.0367 32.6577C78.8134 32.6577 79.5432 32.5072 80.2356 32.2157C80.928 31.9242 81.5269 31.5199 82.0228 31.0027C82.5187 30.4855 82.921 29.8743 83.2298 29.1785C83.5386 28.4826 83.6883 27.7304 83.6883 26.9217C83.6883 26.1412 83.5386 25.4078 83.2298 24.7119C82.921 24.0161 82.5187 23.4049 82.0228 22.8877C81.5269 22.3705 80.928 21.9662 80.2356 21.6747C79.5432 21.3832 78.8134 21.2327 78.0367 21.2327C77.2601 21.2327 76.5303 21.3832 75.8379 21.6747C75.1455 21.9662 74.5466 22.3705 74.0507 22.8877C73.5548 23.4049 73.1524 24.0067 72.8436 24.6837C72.5349 25.3702 72.3852 26.0942 72.3852 26.8747Z" fill="white"/>
<path d="M104.975 21.8719V39.4654H96.2263V21.8719H93.3257V14.5374H96.2263V7.04297H104.975V14.528H109.953V21.8625H104.975V21.8719Z" fill="white"/>
<path d="M126 33.5601C126 35.7228 125.251 37.5658 123.745 39.0798C122.238 40.5937 120.423 41.3554 118.29 41.3554C116.156 41.3554 114.332 40.5937 112.816 39.0704C111.31 37.5564 110.561 35.7134 110.561 33.5413C110.561 32.3376 110.804 31.2469 111.291 30.2595C111.787 29.2064 112.47 28.313 113.349 27.589C114.79 26.3948 116.409 25.793 118.196 25.793C119.385 25.793 120.461 26.0186 121.424 26.47C122.791 27.0718 123.895 28.0215 124.727 29.3286C125.579 30.6356 126 32.0461 126 33.5601ZM118.234 26.9214C116.475 26.9214 114.959 27.5702 113.705 28.8772C112.442 30.1843 111.805 31.7452 111.805 33.5507C111.805 35.3937 112.442 36.964 113.705 38.2805C114.968 39.5875 116.493 40.2364 118.29 40.2364C120.068 40.2364 121.593 39.5875 122.856 38.2899C124.119 36.9828 124.746 35.4125 124.746 33.5601C124.746 32.5727 124.503 31.5478 124.007 30.4946C123.52 29.5073 122.865 28.7268 122.061 28.1438C120.919 27.3257 119.647 26.9214 118.234 26.9214ZM119.038 34.3123L121.939 38.0642H119.852L117.204 34.5098V38.0642H115.501V29.0935H117.289C118.533 29.0935 119.441 29.3192 120.021 29.7611C120.657 30.2783 120.975 30.9554 120.975 31.7828C120.975 32.347 120.807 32.8642 120.461 33.3438C120.124 33.8045 119.684 34.1149 119.16 34.2747L119.038 34.3123ZM117.204 33.0711H117.494C118.711 33.0711 119.328 32.6479 119.328 31.8016C119.328 31.0118 118.739 30.6168 117.551 30.6168H117.204V33.0711Z" fill="white"/>
</svg>
